<svg width="60" height="53" viewBox="0 0 60 53" fill="none" xmlns="http://www.w3.org/2000/svg">
<path opacity="0.91" d="M22.334 0C21.0208 -1.31322e-07 19.7204 0.258658 18.5072 0.761205C17.2939 1.26375 16.1915 2.00035 15.2629 2.92893C14.3343 3.85752 13.5977 4.95991 13.0952 6.17316C12.5926 7.38642 12.334 8.68678 12.334 10C12.334 11.3132 12.5926 12.6136 13.0952 13.8268C13.5977 15.0401 14.3343 16.1425 15.2629 17.0711C16.1915 17.9997 17.2939 18.7362 18.5072 19.2388C19.7204 19.7413 21.0208 20 22.334 20C24.9861 20 27.5297 18.9464 29.4051 17.0711C31.2804 15.1957 32.334 12.6522 32.334 10C32.334 7.34784 31.2804 4.8043 29.4051 2.92893C27.5297 1.05357 24.9861 0 22.334 0ZM13.7012 22.085C5.60713 25.5197 0.255442 33.3546 0 42.1436C5.47445 48.4019 13.5012 52.373 22.4756 52.373C27.3916 52.373 31.9999 51.144 36.084 49.0381C34.9753 47.5564 34.0438 45.9332 33.2568 44.1895C30.7868 38.7161 29.5175 32.1297 29.3652 25.7227L29.3506 25.0928L22.5488 35.7324L13.7012 22.085ZM47.6367 22.5684C43.2748 22.5684 35.4883 27.4268 35.4883 27.4268C35.7635 39.0059 40.3603 51.8198 47.6367 51.7285C47.6447 51.7284 47.6531 51.7286 47.6611 51.7285C49.7062 51.7025 51.5164 50.6357 52.9932 49.0869C54.4699 47.5381 55.6835 45.4775 56.6797 43.1641C58.672 38.5371 59.7852 32.8914 59.7852 28.2373V27.5684L59.2236 27.2119C59.2236 27.2119 57.4218 26.067 55.1172 24.9219C52.8126 23.7768 50.0678 22.5684 47.6465 22.5684H47.6367ZM47.6367 24.9951H47.6465C49.148 24.9951 51.86 26.0173 54.0381 27.0996C55.8594 28.0046 56.8463 28.6341 57.2852 28.9062C57.1874 33.0612 56.1902 38.1453 54.4434 42.2021C53.5258 44.333 52.4208 46.1688 51.2354 47.4121C50.0521 48.653 48.8611 49.2789 47.6367 49.2969V24.9951Z" fill="#F9A61A"/>
</svg>
