<svg width="50" height="50" viewBox="0 0 50 50" fill="none" xmlns="http://www.w3.org/2000/svg">
<g clip-path="url(#clip0_20_294)">
<path d="M49.3981 17.619L27.272 7.43401C26.5543 7.10344 25.7898 6.93665 25 6.93665C24.2102 6.93665 23.4459 7.10344 22.728 7.43401L0.601855 17.619C0.236133 17.788 0 18.1565 0 18.5591C0 18.9617 0.236133 19.3302 0.601855 19.4992L22.728 29.6842C23.4457 30.0148 24.2102 30.1823 25 30.1823C25.7898 30.1823 26.5543 30.0148 27.2722 29.6842L44.7343 21.6465V29.7404C44.0413 29.8185 43.5009 30.4083 43.5009 31.121C43.5009 31.742 43.9118 32.2796 44.4976 32.4509L43.3167 40.243H48.7538L47.5731 32.4509C48.1587 32.2796 48.5696 31.742 48.5696 31.121C48.5696 30.4083 48.0292 29.8185 47.3362 29.7404V20.4486L49.3983 19.4992C49.764 19.3302 50.0002 18.9617 50.0002 18.5591C50.0002 18.1565 49.7639 17.788 49.3981 17.619Z" fill="#F9A61A"/>
<path d="M25 33.8702C23.9017 33.8702 22.8375 33.6367 21.8373 33.1765L11.0149 28.1943V38.1199C11.0149 40.299 17.5995 43.0634 25 43.0634C32.4005 43.0634 38.9852 40.2989 38.9852 38.1199V28.1943L28.1623 33.1765C27.1625 33.6367 26.0986 33.8702 25 33.8702Z" fill="#F9A61A"/>
</g>
<defs>
<clipPath id="clip0_20_294">
<rect width="50" height="50" fill="white"/>
</clipPath>
</defs>
</svg>
