<svg width="35" height="35" viewBox="0 0 35 35" fill="none" xmlns="http://www.w3.org/2000/svg">
<path fill-rule="evenodd" clip-rule="evenodd" d="M7.29199 27.7083C7.29199 26.9029 7.94492 26.25 8.75033 26.25H26.2503C27.0558 26.25 27.7087 26.9029 27.7087 27.7083C27.7087 28.5138 27.0558 29.1667 26.2503 29.1667H8.75033C7.94492 29.1667 7.29199 28.5138 7.29199 27.7083Z" fill="#F9A61A"/>
<path fill-rule="evenodd" clip-rule="evenodd" d="M14.4065 6.86453C16.115 5.156 18.8851 5.156 20.5937 6.86453L24.3365 10.6073C24.7804 11.0512 25.4584 11.1612 26.0199 10.8805L27.0563 10.3623C29.2947 9.24311 31.7688 11.3889 30.9775 13.7631L28.2984 21.8002C27.7029 23.5866 26.0311 24.7917 24.148 24.7917H10.8524C8.96922 24.7917 7.29736 23.5866 6.70186 21.8002L4.02284 13.7631C3.23145 11.3889 5.7056 9.24311 7.944 10.3623L8.98037 10.8805C9.54182 11.1612 10.2199 11.0512 10.6638 10.6073L14.4065 6.86453Z" fill="#F9A61A"/>
</svg>
