<svg width="35" height="35" viewBox="0 0 35 35" fill="none" xmlns="http://www.w3.org/2000/svg">
<path d="M7.29167 14.5833C8.9025 14.5833 10.2083 15.8891 10.2083 17.5C10.2083 19.1109 8.9025 20.4167 7.29167 20.4167C5.68084 20.4167 4.375 19.1109 4.375 17.5C4.375 15.8891 5.68084 14.5833 7.29167 14.5833Z" fill="#444444"/>
<path d="M17.5002 14.5833C19.111 14.5833 20.4168 15.8891 20.4168 17.5C20.4168 19.1109 19.111 20.4167 17.5002 20.4167C15.8893 20.4167 14.5835 19.1109 14.5835 17.5C14.5835 15.8891 15.8893 14.5833 17.5002 14.5833Z" fill="#444444"/>
<path d="M30.6248 17.5C30.6248 15.8891 29.319 14.5833 27.7082 14.5833C26.0973 14.5833 24.7915 15.8891 24.7915 17.5C24.7915 19.1109 26.0973 20.4167 27.7082 20.4167C29.319 20.4167 30.6248 19.1109 30.6248 17.5Z" fill="#444444"/>
</svg>
