<svg width="20" height="20" viewBox="0 0 20 20" fill="none" xmlns="http://www.w3.org/2000/svg">
<g clip-path="url(#clip0_15_79)">
<path d="M3.74622 6.20074C2.956 6.7649 2.31533 7.36814 1.82439 7.89983C0.714462 9.10185 0.714463 10.8982 1.82439 12.1002C3.26389 13.6592 5.99063 15.8333 9.99997 15.8333C11.0798 15.8333 12.0666 15.6757 12.9602 15.4148L11.5746 14.0291C11.078 14.1174 10.5531 14.1667 9.99997 14.1667C6.63905 14.1667 4.32357 12.35 3.04887 10.9695C2.52852 10.406 2.52852 9.59401 3.04887 9.03051C3.53125 8.5081 4.16269 7.92321 4.94342 7.39795L3.74622 6.20074Z" fill="#444444"/>
<path d="M7.11078 9.56531C7.08959 9.70714 7.07861 9.85222 7.07861 9.99997C7.07861 11.6108 8.38446 12.9166 9.99529 12.9166C10.143 12.9166 10.2881 12.9056 10.43 12.8845L7.11078 9.56531Z" fill="#444444"/>
<path d="M12.8885 10.3726L9.6228 7.10689C9.7448 7.09133 9.86914 7.08331 9.99539 7.08331C11.6062 7.08331 12.9121 8.38915 12.9121 9.99998C12.9121 10.1262 12.9041 10.2506 12.8885 10.3726Z" fill="#444444"/>
<path d="M15.0932 12.5774C15.857 12.0585 16.4763 11.4838 16.9511 10.9695C17.4715 10.406 17.4715 9.59402 16.9511 9.03052C15.6765 7.65004 13.361 5.83335 10 5.83335C9.46621 5.83335 8.95879 5.87918 8.47771 5.96181L7.0874 4.57154C7.96846 4.31885 8.93938 4.16669 10 4.16669C14.0094 4.16669 16.7361 6.3409 18.1756 7.89984C19.2855 9.10185 19.2855 10.8982 18.1756 12.1002C17.6921 12.6239 17.0634 13.2169 16.2895 13.7737L15.0932 12.5774Z" fill="#444444"/>
<path d="M1.67328 2.85173C1.34784 2.52629 1.34784 1.99865 1.67328 1.67322C1.99871 1.34778 2.52636 1.34778 2.85179 1.67322L18.3337 17.1552C18.6592 17.4806 18.6592 18.0083 18.3337 18.3337C18.0083 18.6591 17.4806 18.6591 17.1552 18.3337L1.67328 2.85173Z" fill="#444444"/>
</g>
<defs>
<clipPath id="clip0_15_79">
<rect width="20" height="20" fill="white"/>
</clipPath>
</defs>
</svg>
