<svg width="20" height="20" viewBox="0 0 20 20" fill="none" xmlns="http://www.w3.org/2000/svg">
<path fill-rule="evenodd" clip-rule="evenodd" d="M12.5 8.75C12.5 10.8211 10.8211 12.5 8.75 12.5C6.67893 12.5 5 10.8211 5 8.75C5 6.67893 6.67893 5 8.75 5C10.8211 5 12.5 6.67893 12.5 8.75ZM11.8161 12.6999C10.9693 13.3581 9.90542 13.75 8.75 13.75C5.98857 13.75 3.75 11.5114 3.75 8.75C3.75 5.98858 5.98857 3.75 8.75 3.75C11.5114 3.75 13.75 5.98858 13.75 8.75C13.75 9.90542 13.3581 10.9693 12.6999 11.816L16.692 15.8081L15.8081 16.6919L11.8161 12.6999Z" fill="#444444"/>
</svg>
