<svg width="50" height="50" viewBox="0 0 50 50" fill="none" xmlns="http://www.w3.org/2000/svg">
<g clip-path="url(#clip0_20_301)">
<path d="M25 23.125C19.325 23.125 18.175 14.525 18.175 14.525C17.5 10.05 19.55 5 24.925 5C30.325 5 32.375 10.05 31.7 14.525C31.7 14.525 30.675 23.125 25 23.125ZM25 29.55L31.8 25C37.775 25 43.1 30.825 43.1 36.325V42.55C43.1 42.55 33.975 45.375 25 45.375C15.875 45.375 6.90002 42.55 6.90002 42.55V36.325C6.90002 30.7 11.75 25.125 18.075 25.125L25 29.55Z" fill="#F9A61A"/>
</g>
<defs>
<clipPath id="clip0_20_301">
<rect width="50" height="50" fill="white"/>
</clipPath>
</defs>
</svg>
